<svg fill="none" height="211" viewBox="0 0 1960 211" width="1960" xmlns="http://www.w3.org/2000/svg" xmlns:xlink="http://www.w3.org/1999/xlink"><linearGradient id="a"><stop offset="0" stop-color="#008080"/><stop offset="1" stop-color="#39b54a"/></linearGradient><linearGradient id="b" gradientUnits="userSpaceOnUse" x1="63.0749" x2="63.0749" xlink:href="#a" y1="210.655" y2=".358227"/><linearGradient id="c" gradientUnits="userSpaceOnUse" x1="96.3925" x2="96.3925" xlink:href="#a" y1="210.655" y2=".358077"/><g fill="#39b54b"><path d="m300.875 141.518c5.103 3.999 11.312 5.999 18.626 5.999 7.313 0 13.627-2.605 18.941-7.814 5.367-5.261 8.05-12.312 8.05-21.151 0-8.892-2.341-15.89-7.024-20.9934-4.63-5.1036-10.865-7.6555-18.705-7.6555-7.839 0-14.39 3.0517-19.651 9.155v37.5669c0 1.789-.079 3.42-.237 4.893zm-3.394 11.997c-2.473 4.314-6.13 6.471-10.97 6.471-4.788 0-7.182-2.236-7.182-6.708 0-2.21 1.052-4.025 3.157-5.446 2.157-1.42 3.525-3.341 4.104-5.761.579-2.473.868-7.287.868-14.443v-75.6077c0-2.052-.184-3.341-.552-3.8672-.369-.5261-.895-.7892-1.579-.7892l-6.708.9471c-2.105 0-3.815-.5262-5.13-1.5785-1.316-1.0523-1.973-2.5255-1.973-4.4196 0-3.9988 2.841-6.2875 8.523-6.8663 3.789-.3157 6.682-.7892 8.682-1.4206 2.052-.684 4.156-1.026 6.314-1.026 4.051 0 6.077 2.5255 6.077 7.5766v44.5912c5.682-5.3667 12.653-8.0501 20.914-8.0501 10.944 0 20.073 3.5252 27.386 10.5756 7.314 7.0504 10.97 16.8627 10.97 29.4377s-3.998 22.862-11.996 30.859c-7.997 7.998-18.178 11.996-30.543 11.996-5.84 0-11.233-1.21-16.179-3.63-1.578-.789-2.973-1.736-4.183-2.841z"/><path d="m388.163 118.236c0 8.682 2.473 15.732 7.419 21.152 4.998 5.419 11.338 8.129 19.02 8.129s13.864-2.552 18.547-7.656c4.735-5.104 7.103-11.917 7.103-20.441 0-14.153-5.025-23.3872-15.074-27.7016-3.315-1.4207-7.051-2.131-11.207-2.131-7.945 0-14.233 2.6045-18.863 7.8134-4.63 5.1562-6.945 12.1012-6.945 20.8352zm-13.732.868c0-12.048 3.814-22.0452 11.443-29.9901 7.682-7.9975 17.311-11.9962 28.886-11.9962 11.628 0 21.072 3.7093 28.333 11.1281 7.314 7.3661 10.97 17.2312 10.97 29.5962 0 12.312-3.814 22.414-11.443 30.306-7.577 7.892-17.284 11.838-29.123 11.838-11.786 0-21.256-3.814-28.412-11.443-7.103-7.63-10.654-17.442-10.654-29.439z"/><path d="m496.05 78.854 19.968-.5525c3.104 0 5.287.5788 6.55 1.7363 1.263 1.1049 1.894 2.4729 1.894 4.104s-.71 3.078-2.131 4.3407c-1.42 1.2628-3.577 1.8942-6.471 1.8942-2.841 0-6.814-.1316-11.918-.3946l-7.892-.2368v37.8827c0 7.84.553 12.838 1.658 14.995 1.157 2.158 2.288 3.499 3.393 4.025 1.158.527 2.894.79 5.209.79s4.499-.921 6.551-2.763c2.052-1.894 3.551-3.13 4.498-3.709 1-.631 2.263-.947 3.789-.947 1.578 0 2.893.605 3.946 1.815 1.105 1.21 1.657 2.631 1.657 4.262 0 3.42-2.157 6.603-6.472 9.55-4.261 2.893-8.76 4.34-13.495 4.34-8.261 0-14.417-2.131-18.468-6.392-3.999-4.315-5.998-9.971-5.998-16.969v-46.3273c-1.842.1579-3.868.2368-6.077.2368-2.158 0-3.946-.5788-5.367-1.7363-1.368-1.1575-2.052-2.657-2.052-4.4986 0-1.8941.684-3.3673 2.052-4.4196 1.421-1.0523 3.13-1.5785 5.13-1.5785 2.052 0 4.13.0526 6.235.1579-.053-1.7363-.105-3.7883-.158-6.156l-.316-6.9452c-.052-2.315-.131-4.367-.237-6.1559-.052-1.7889-.078-2.9728-.078-3.5515 0-2.6834.736-4.6828 2.209-5.9981 1.474-1.3154 3.315-1.9731 5.525-1.9731 5.051 0 7.576 2.9201 7.576 8.7604z"/><path d="m563.292 78.854 19.968-.5525c3.104 0 5.287.5788 6.55 1.7363 1.263 1.1049 1.894 2.4729 1.894 4.104s-.71 3.078-2.131 4.3407c-1.42 1.2628-3.577 1.8942-6.471 1.8942-2.841 0-6.814-.1316-11.918-.3946l-7.892-.2368v37.8827c0 7.84.553 12.838 1.658 14.995 1.157 2.158 2.288 3.499 3.393 4.025 1.158.527 2.894.79 5.209.79s4.499-.921 6.551-2.763c2.052-1.894 3.551-3.13 4.498-3.709 1-.631 2.263-.947 3.789-.947 1.578 0 2.893.605 3.946 1.815 1.105 1.21 1.657 2.631 1.657 4.262 0 3.42-2.157 6.603-6.472 9.55-4.261 2.893-8.76 4.34-13.495 4.34-8.261 0-14.417-2.131-18.468-6.392-3.999-4.315-5.998-9.971-5.998-16.969v-46.3273c-1.842.1579-3.868.2368-6.077.2368-2.158 0-3.947-.5788-5.367-1.7363-1.368-1.1575-2.052-2.657-2.052-4.4986 0-1.8941.684-3.3673 2.052-4.4196 1.42-1.0523 3.13-1.5785 5.13-1.5785 2.052 0 4.13.0526 6.235.1579-.053-1.7363-.106-3.7883-.158-6.156l-.316-6.9452c-.052-2.315-.131-4.367-.237-6.1559-.052-1.7889-.078-2.9728-.078-3.5515 0-2.6834.736-4.6828 2.209-5.9981 1.474-1.3154 3.315-1.9731 5.525-1.9731 5.051 0 7.576 2.9201 7.576 8.7604z"/><path d="m643.241 141.913c3.42 0 5.13 1.999 5.13 5.998 0 2.999-1.947 5.762-5.841 8.287-3.841 2.526-8.365 3.788-13.574 3.788-8.787 0-14.654-4.156-17.6-12.469-1-2.842-1.5-6.209-1.5-10.103v-85.3937c0-2.052-.184-3.341-.552-3.8672-.316-.5261-.789-.7892-1.421-.7892l-6.866.9471c-2.052 0-3.762-.5262-5.13-1.5785-1.315-1.0523-1.973-2.5255-1.973-4.4196 0-3.9988 2.841-6.2875 8.524-6.8663 3.683-.3157 6.55-.7892 8.602-1.4206 2.105-.684 4.236-1.026 6.393-1.026 4.104 0 6.156 2.5255 6.156 7.5766v87.8404c0 7.366.368 12.075 1.105 14.127.736 2 1.552 3.315 2.446 3.947.895.631 2.263.947 4.104.947 1.895 0 3.578-.658 5.051-1.973 1.526-1.316 2.71-2.237 3.552-2.763s1.973-.789 3.394-.789z"/><path d="m673.31 111.133 5.446.158c1.789.053 7.524.079 17.205.079s16.021-.789 19.02-2.368c2.999-1.578 4.499-3.972 4.499-7.182 0-3.2091-1.815-6.0503-5.446-8.5232-3.63-2.4729-7.655-3.7094-12.075-3.7094-7.734 0-14.101 1.9731-19.099 5.9192-4.999 3.9462-8.182 9.1554-9.55 15.6264zm52.957 22.809c4.63 0 6.945 2.078 6.945 6.235 0 1.894-.736 4.025-2.209 6.393-1.421 2.315-3.526 4.472-6.314 6.471-6.525 4.63-15.074 6.945-25.65 6.945-10.523 0-19.652-3.551-27.386-10.654-3.841-3.525-6.919-7.866-9.234-13.022-2.315-5.157-3.473-10.813-3.473-16.969 0-11.996 3.946-22.0191 11.839-30.0692 7.892-8.1028 17.836-12.1541 29.832-12.1541 9.997 0 17.916 2.4466 23.756 7.3398 5.893 4.8406 8.839 10.8124 8.839 17.9155 0 7.103-2.867 12.417-8.602 15.942-5.735 3.473-16.627 5.209-32.674 5.209-4.262 0-10.576-.158-18.942-.473.948 8.155 4.104 14.285 9.471 18.389 5.367 4.051 10.97 6.077 16.811 6.077 5.84 0 10.444-.632 13.811-1.895 3.42-1.315 5.867-3.577 7.34-6.787 1.526-3.262 3.472-4.893 5.84-4.893z"/><path d="m793.588 158.802-17.126-.473c-1.894 0-3.394.026-4.499.079l-3.472.158c-2.684.158-5.104.236-7.261.236s-3.946-.499-5.367-1.499c-1.368-1-2.052-2.447-2.052-4.341s.816-3.367 2.447-4.419c1.631-1.053 3.788-1.579 6.471-1.579h6.235v-58.2447c-.315.0526-.605.0789-.868.0789h-.868c-2.683.1579-5.104.2368-7.261.2368s-3.946-.4999-5.367-1.4995c-1.368-1.0523-2.052-2.4993-2.052-4.3408 0-1.8941.684-3.3673 2.052-4.4196 1.421-1.0523 3.21-1.5785 5.367-1.5785s4.578.0789 7.261.2368l1.736.1578v-16.7316c0-8.5236 2.184-15.2846 6.551-20.283 4.367-5.0511 9.918-7.5766 16.652-7.5766 6.788 0 11.918 1.3943 15.39 4.1829 3.473 2.736 5.209 6.5769 5.209 11.5227 0 2.315-.579 4.1566-1.736 5.5246-1.158 1.3153-2.657 1.973-4.499 1.973-3.42 0-5.629-1.7626-6.629-5.2878-.947-3.5252-3.578-5.2878-7.892-5.2878-6.209 0-9.313 6.0244-9.313 18.0733v13.9692l3.236-.2367c3.84-.1579 7.471-.2368 10.891-.2368 3.472 0 5.84.5788 7.103 1.7363 1.263 1.1049 1.894 2.2098 1.894 3.3147 0 4.5249-3.131 6.7874-9.392 6.7874s-10.838-.1316-13.732-.3946v58.3236h9.47c6.577 0 9.866 2.078 9.866 6.235 0 1.473-.658 2.789-1.973 3.946-1.263 1.105-3.42 1.657-6.472 1.657z"/><path d="m865.408 158.802-20.441-.473c-2.368 0-4.104.026-5.209.079l-3.473.158c-2.631.158-4.946.236-6.945.236-5.104 0-7.656-1.946-7.656-5.84 0-1.894.79-3.367 2.368-4.419 1.631-1.053 3.788-1.579 6.472-1.579h7.103v-51.4574c0-3.1569-.684-4.7353-2.052-4.7353-.632 0-1.631.1841-2.999.5524-1.316.3683-2.815.5525-4.499.5525-1.631 0-3.104-.5525-4.419-1.6574-1.316-1.1049-1.974-2.6044-1.974-4.4986 0-3.9987 2.842-6.2875 8.524-6.8662 3.525-.3157 6.393-.7892 8.603-1.4206 2.262-.6314 4.446-.9471 6.55-.9471 3.946 0 5.919 2.5255 5.919 7.5766v12.154c4.104-9.0497 10.839-14.9689 20.205-17.7575 2.999-.8945 5.998-1.3417 8.997-1.3417 5.63 0 10.154 1.3417 13.574 4.025 3.473 2.6308 5.209 6.4191 5.209 11.3649s-.868 8.7344-2.604 11.3644c-1.736 2.631-4.051 3.947-6.945 3.947-4.525 0-6.788-2.052-6.788-6.156 0-.842.079-1.526.237-2.0524l.632-1.7363c.473-1.3154.71-2.6571.71-4.025 0-2.9991-2.552-4.4986-7.656-4.4986-5.103 0-10.102 2.8938-14.995 8.6815-4.841 5.7878-8.366 13.4168-10.576 22.8878v26.044h12.786c6.735 0 10.102 2.078 10.102 6.235 0 1.473-.658 2.789-1.973 3.946-1.263 1.105-3.525 1.657-6.787 1.657z"/><path d="m929.019 111.133 5.446.158c1.789.053 7.524.079 17.205.079s16.021-.789 19.02-2.368c2.999-1.578 4.499-3.972 4.499-7.182 0-3.2091-1.815-6.0503-5.446-8.5232-3.63-2.4729-7.655-3.7094-12.075-3.7094-7.734 0-14.101 1.9731-19.099 5.9192-4.999 3.9462-8.182 9.1554-9.55 15.6264zm52.957 22.809c4.63 0 6.945 2.078 6.945 6.235 0 1.894-.736 4.025-2.21 6.393-1.42 2.315-3.525 4.472-6.313 6.471-6.525 4.63-15.075 6.945-25.65 6.945-10.523 0-19.652-3.551-27.386-10.654-3.841-3.525-6.919-7.866-9.234-13.022-2.315-5.157-3.473-10.813-3.473-16.969 0-11.996 3.946-22.0191 11.839-30.0692 7.892-8.1028 17.836-12.1541 29.832-12.1541 9.997 0 17.916 2.4466 23.756 7.3398 5.893 4.8406 8.839 10.8124 8.839 17.9155 0 7.103-2.867 12.417-8.602 15.942-5.735 3.473-16.627 5.209-32.674 5.209-4.262 0-10.576-.158-18.942-.473.947 8.155 4.104 14.285 9.471 18.389 5.367 4.051 10.97 6.077 16.811 6.077 5.84 0 10.444-.632 13.811-1.895 3.42-1.315 5.867-3.577 7.34-6.787 1.526-3.262 3.472-4.893 5.84-4.893z"/><path d="m1023.25 111.133 5.45.158c1.79.053 7.52.079 17.2.079s16.02-.789 19.02-2.368c3-1.578 4.5-3.972 4.5-7.182 0-3.2091-1.81-6.0503-5.44-8.5232s-7.66-3.7094-12.08-3.7094c-7.73 0-14.1 1.9731-19.1 5.9192-5 3.9462-8.18 9.1554-9.55 15.6264zm52.96 22.809c4.63 0 6.94 2.078 6.94 6.235 0 1.894-.73 4.025-2.21 6.393-1.42 2.315-3.52 4.472-6.31 6.471-6.52 4.63-15.07 6.945-25.65 6.945-10.52 0-19.65-3.551-27.38-10.654-3.85-3.525-6.92-7.866-9.24-13.022-2.31-5.157-3.47-10.813-3.47-16.969 0-11.996 3.94-22.0191 11.84-30.0692 7.89-8.1028 17.83-12.1541 29.83-12.1541 10 0 17.92 2.4466 23.76 7.3398 5.89 4.8406 8.83 10.8124 8.83 17.9155 0 7.103-2.86 12.417-8.6 15.942-5.73 3.473-16.62 5.209-32.67 5.209-4.26 0-10.58-.158-18.94-.473.94 8.155 4.1 14.285 9.47 18.389 5.36 4.051 10.97 6.077 16.81 6.077s10.44-.632 13.81-1.895c3.42-1.315 5.87-3.577 7.34-6.787 1.53-3.262 3.47-4.893 5.84-4.893z"/></g><path d="m1191.46 76.6442c4.26 0 6.39 1.4995 6.39 4.4985 0 2.052-.92 3.8409-2.76 5.3668-3.74 3.0516-6.55 5.8402-8.45 8.3658-1.84 2.5255-3.81 6.3137-5.91 11.3647-11.68 28.202-18.31 44.381-19.89 48.537-.48 1.316-1.45 2.5-2.92 3.552-1.48 1.105-3.34 1.657-5.61 1.657-4.31 0-7.2-1.973-8.68-5.919-.73-1.999-1.84-4.762-3.31-8.287l-16.42-39.54c-2.63-6.3137-4.68-10.3914-6.15-12.2329-1.48-1.8941-2.74-3.2358-3.79-4.025l-3.55-2.7623c-2.48-1.9994-3.71-4.0251-3.71-6.0771 0-2.999 2.15-4.4985 6.47-4.4985l8.84.5524 13.65-.5524c2.53 0 4.45.4998 5.76 1.4995 1.32.9997 1.98 2.2361 1.98 3.7093 0 4.4723-4.11 6.7085-12.32 6.7085h-.63l22.26 53.5095 22.02-53.5095h-1.19c-8.15 0-12.23-2.2362-12.23-6.7085 0-1.4732.63-2.7096 1.89-3.7093 1.32-.9997 3.24-1.4995 5.77-1.4995l14.2.5524z" fill="#008080"/><path d="m1265.33 124.313c-8.52-1.631-16.1-2.446-22.73-2.446-6.58 0-11.44 1.315-14.6 3.946-3.1 2.578-4.66 5.524-4.66 8.839s1.45 6.051 4.34 8.208c2.9 2.105 6.95 3.157 12.16 3.157 10.68 0 19.18-3.446 25.49-10.339zm1.82 23.598c-5.79 6.945-15.39 10.418-28.81 10.418-8.95 0-16.07-2.052-21.39-6.156-5.26-4.104-7.89-9.655-7.89-16.653 0-11.628 6.44-19.204 19.33-22.729 4.37-1.158 10-1.737 16.89-1.737 6.95 0 13.63.79 20.05 2.368v-8.681c0-8.6819-3.47-13.996-10.42-15.9428-2.47-.7366-5.78-1.1049-9.94-1.1049-8.89 0-14.02 2.3677-15.39 7.103-.84 2.5256-2.34 4.3408-4.5 5.4457-.95.474-2.03.71-3.24.71-4.99 0-7.49-2.6831-7.49-8.0498 0-4.5775 3-8.6289 8.99-12.1541 6.05-3.5252 13.71-5.2878 22.97-5.2878 15.68 0 25.81 5.5509 30.39 16.6527 1.52 3.7882 2.28 8.261 2.28 13.417v20.441c0 7.155.29 11.97.87 14.443.58 2.42 1.66 4.13 3.24 5.13 2.79 1.788 4.18 3.867 4.18 6.234 0 4.367-2.76 6.551-8.29 6.551-5.47 0-9.41-3.473-11.83-10.418z" fill="#008080"/><path d="m1307.16 157.145c-5.05 0-7.58-1.947-7.58-5.84 0-1.894.79-3.368 2.37-4.42s3.76-1.578 6.55-1.578h7.03v-51.4577c0-3.1569-.69-4.7354-2.06-4.7354-.73 0-1.71.1842-2.92.5525s-2.68.5524-4.42.5524c-1.73 0-3.26-.5524-4.57-1.6573-1.32-1.105-1.98-2.6045-1.98-4.4986 0-3.9988 2.84-6.2875 8.53-6.8663 3-.2631 5.78-.7103 8.36-1.3417 2.63-.684 4.95-1.026 6.95-1.026 3.84 0 5.76 2.5256 5.76 7.5766v10.3388c2.26-5.051 5.97-9.1813 11.13-12.3908 5.15-3.2621 10.6-4.8932 16.33-4.8932 10.21 0 17.45 2.5782 21.71 7.7344 4.26 5.1563 6.39 12.1015 6.39 20.8353v41.277h5.29c6.63 0 9.94 2.078 9.94 6.235 0 1.473-.63 2.788-1.89 3.946-1.26 1.105-3.42 1.657-6.47 1.657l-13.89-.473-15 .473c-5.05 0-7.58-1.947-7.58-5.84 0-1.894.79-3.368 2.37-4.42s3.76-1.578 6.55-1.578h6.87v-36.147c0-11.0489-2.79-17.6784-8.37-19.8882-1.94-.7893-4.29-1.1839-7.02-1.1839-5.63 0-11.02 2.1572-16.18 6.4717-5.1 4.3144-8.5 9.7864-10.18 16.4154v34.332h5.29c6.63 0 9.94 2.078 9.94 6.235 0 1.473-.63 2.788-1.89 3.946-1.27 1.105-3.42 1.657-6.47 1.657l-13.9-.473z" fill="#008080"/><path d="m1477.55 131.495c4.69 0 7.03 2.079 7.03 6.235 0 1.894-.77 4.052-2.29 6.472-1.47 2.42-3.66 4.683-6.55 6.787-6.74 4.893-15.37 7.34-25.89 7.34-10.47 0-19.47-3.499-26.99-10.497-3.68-3.472-6.66-7.787-8.92-12.943-2.21-5.209-3.31-10.944-3.31-17.205 0-12.049 4.02-22.0984 12.07-30.1485s18.15-12.0752 30.31-12.0752c3.31 0 6.65.5262 10.02 1.5785-.1-.2631-.16-.4999-.16-.7103v-1.7363c0-.9997.48-2.052 1.42-3.1569 1-1.1576 2.27-1.7363 3.79-1.7363 2.74 0 4.55 1.368 5.45 4.1039l.95 2.7623c1.26 3.3148 3.47 6.9189 6.62 10.8124 3.21 3.8409 4.82 6.7347 4.82 8.6815s-.5 3.4726-1.5 4.5779c-1 1.105-2.32 1.657-3.95 1.657-3.1 0-6.34-2.184-9.7-6.5506-4.27-5.2089-10.5-7.8133-18.71-7.8133s-14.89 2.7886-20.05 8.3658c-5.1 5.5771-7.65 12.6801-7.65 21.3091 0 8.576 2.58 15.442 7.73 20.599 5.21 5.103 11.66 7.655 19.34 7.655 10.36 0 16.99-3.104 19.89-9.313 1.84-3.367 3.92-5.051 6.23-5.051z" fill="#008080"/><path d="m1516.46 116.579c0 8.681 2.47 15.732 7.42 21.151 5 5.42 11.34 8.129 19.02 8.129s13.87-2.552 18.55-7.655c4.73-5.104 7.1-11.918 7.1-20.441 0-14.154-5.02-23.3876-15.07-27.702-3.32-1.4206-7.05-2.1309-11.21-2.1309-7.95 0-14.23 2.6044-18.86 7.8133-4.63 5.1566-6.95 12.1016-6.95 20.8356zm-13.73.868c0-12.049 3.81-22.0456 11.44-29.9905 7.69-7.9974 17.31-11.9962 28.89-11.9962 11.63 0 21.07 3.7094 28.33 11.1281 7.32 7.3661 10.97 17.2316 10.97 29.5956 0 12.312-3.81 22.414-11.44 30.307-7.58 7.892-17.29 11.838-29.12 11.838-11.79 0-21.26-3.815-28.42-11.444-7.1-7.629-10.65-17.442-10.65-29.438z" fill="#008080"/><path d="m1656.08 142.308c-5.21 10.681-13.95 16.021-26.21 16.021-4 0-7.7-.71-11.12-2.131-9.53-3.999-14.29-12.759-14.29-26.281v-35.4364c0-3.0516-.68-4.5775-2.05-4.5775l-5.84.9471c-4.68 0-7.03-2.1572-7.03-6.4716 0-3.8409 2.53-5.9981 7.58-6.4717 3-.2631 5.34-.6314 7.02-1.1049l4.03-.9471c1-.263 2.42-.3946 4.26-.3946s3.26.7103 4.26 2.1309 1.5 3.2358 1.5 5.4457v41.7501c0 10.576 2.66 17.1 7.97 19.573 1.95.894 4.24 1.341 6.87 1.341 4.95 0 9.55-2.42 13.81-7.261 4.26-4.84 7.26-10.759 9-17.757v-26.2024c0-1.9993-.18-3.2621-.55-3.7882-.37-.5262-.9-.7893-1.58-.7893l-5.53.9471c-4.68 0-7.02-2.1572-7.02-6.4716 0-3.8409 2.58-5.9981 7.73-6.4717 2.74-.2631 4.98-.6051 6.71-1.026l3.95-1.026c.95-.263 2.34-.3946 4.18-.3946 1.9 0 3.32.7103 4.26 2.1309 1 1.4206 1.5 3.2358 1.5 5.4457v42.9341c0 9.891 1.21 15.968 3.63 18.231.74.684 1.71 1.263 2.92 1.736 2.11.842 3.16 2.499 3.16 4.972 0 4.946-2.95 7.419-8.84 7.419-5.84 0-10-2.92-12.47-8.76-.89-2.052-1.5-4.473-1.81-7.261z" fill="#008080"/><path d="m1769.65 76.6442c4.26 0 6.39 1.4995 6.39 4.4985 0 2.052-.92 3.8409-2.76 5.3668-3.74 3.0516-6.55 5.8402-8.45 8.3658-1.84 2.5255-3.81 6.3137-5.92 11.3647-11.68 28.202-18.31 44.381-19.89 48.537-.47 1.316-1.44 2.5-2.92 3.552-1.47 1.105-3.34 1.657-5.6 1.657-4.31 0-7.21-1.973-8.68-5.919-.74-1.999-1.84-4.762-3.32-8.287l-16.41-39.54c-2.63-6.3137-4.68-10.3914-6.16-12.2329-1.47-1.8941-2.73-3.2358-3.79-4.025l-3.55-2.7623c-2.47-1.9994-3.71-4.0251-3.71-6.0771 0-2.999 2.16-4.4985 6.47-4.4985l8.84.5524 13.66-.5524c2.52 0 4.44.4998 5.76 1.4995 1.31.9997 1.97 2.2361 1.97 3.7093 0 4.4723-4.1 6.7085-12.31 6.7085h-.63l22.25 53.5095 22.02-53.5095h-1.18c-8.16 0-12.23-2.2362-12.23-6.7085 0-1.4732.63-2.7096 1.89-3.7093 1.32-.9997 3.24-1.4995 5.76-1.4995l14.21.5524z" fill="#008080"/><path d="m1801.14 109.476 5.44.158c1.79.052 7.53.079 17.21.079s16.02-.79 19.02-2.368 4.5-3.972 4.5-7.182c0-3.2094-1.82-6.0507-5.45-8.5236s-7.66-3.7093-12.08-3.7093c-7.73 0-14.1 1.973-19.09 5.9192-5 3.9461-8.19 9.1547-9.55 15.6267zm52.95 22.809c4.63 0 6.95 2.078 6.95 6.234 0 1.895-.74 4.025-2.21 6.393-1.42 2.315-3.53 4.472-6.32 6.472-6.52 4.63-15.07 6.945-25.65 6.945-10.52 0-19.65-3.552-27.38-10.655-3.84-3.525-6.92-7.866-9.24-13.022-2.31-5.156-3.47-10.812-3.47-16.968 0-11.996 3.95-22.0195 11.84-30.0696 7.89-8.1027 17.84-12.1541 29.83-12.1541 10 0 17.92 2.4466 23.76 7.3398 5.89 4.8406 8.84 10.8124 8.84 17.9159 0 7.103-2.87 12.417-8.6 15.942-5.74 3.472-16.63 5.209-32.68 5.209-4.26 0-10.57-.158-18.94-.474.95 8.156 4.1 14.285 9.47 18.389 5.37 4.052 10.97 6.077 16.81 6.077s10.45-.631 13.81-1.894c3.42-1.315 5.87-3.578 7.34-6.787 1.53-3.262 3.47-4.893 5.84-4.893z" fill="#008080"/><path d="m1925.68 157.145-20.45-.473c-2.36 0-4.1.026-5.2.079l-3.48.157c-2.63.158-4.94.237-6.94.237-5.11 0-7.66-1.947-7.66-5.84 0-1.894.79-3.368 2.37-4.42 1.63-1.052 3.79-1.578 6.47-1.578h7.1v-51.4577c0-3.1569-.68-4.7354-2.05-4.7354-.63 0-1.63.1842-3 .5525-1.31.3683-2.81.5524-4.5.5524-1.63 0-3.1-.5524-4.41-1.6573-1.32-1.105-1.98-2.6045-1.98-4.4986 0-3.9988 2.84-6.2875 8.53-6.8663 3.52-.3157 6.39-.7892 8.6-1.4206 2.26-.6314 4.44-.9471 6.55-.9471 3.95 0 5.92 2.5256 5.92 7.5766v12.1541c4.1-9.0498 10.84-14.969 20.2-17.7576 3-.8945 6-1.3417 9-1.3417 5.63 0 10.15 1.3417 13.57 4.0251 3.48 2.6307 5.21 6.419 5.21 11.3648s-.87 8.7341-2.6 11.3648c-1.74 2.631-4.05 3.946-6.95 3.946-4.52 0-6.78-2.052-6.78-6.156 0-.8416.07-1.5256.23-2.0518l.63-1.7363c.48-1.3153.71-2.657.71-4.025 0-2.9991-2.55-4.4986-7.65-4.4986s-10.1 2.8938-15 8.6815c-4.84 5.7872-8.36 13.4172-10.57 22.8872v26.045h12.78c6.74 0 10.11 2.078 10.11 6.235 0 1.473-.66 2.788-1.98 3.946-1.26 1.105-3.52 1.657-6.78 1.657z" fill="#008080"/><path d="m42.676 119.485c0 12.64 6.72 25.12 20.3187 25.12 11.0387 0 20.48-9.12 20.48-25.278 0-15.52-8.3214-25.6003-20.32-25.6003-10.56 0-20.4787 7.6803-20.4787 25.7583" fill="url(#b)"/><path d="m65.2626 23.92c-7.8253 2.6827-15.1827 6.36-21.948 10.8613v45.9854c0 4-.32 6.88-.32 6.88h.32s7.2-11.3587 24.4787-11.3587c22.0813 0 36.1597 17.4387 36.1597 42.719 0 25.917-15.8397 42.717-37.4384 42.717-16.96 0-24.3186-11.52-24.3186-11.52h-.3214s.3214 2.24.3214 5.44v4.159h-19.2v-106.891c-14.06937 16.6947-22.553373 38.2547-22.553373 61.795 0 52.992 42.959973 95.948 95.953373 95.948 52.989 0 95.947-42.956 95.947-95.948v-19.2216h-4.123c-2.239 0-3.679.8013-4.48 2.8799l-23.359 61.4377h-24.158l-23.359-61.4377c-.801-2.0786-2.241-2.8799-4.481-2.8799h-1.759v-17.2787h11.679c6.72 0 9.92 2.0813 12 7.6799l15.358 42.8774c1.762 4.801 3.04 11.68 3.04 11.68h.32s1.282-6.879 2.88-11.68l15.36-42.8774c2.08-5.5986 5.439-7.6799 12-7.6799h13.082v-77.849354s-89.366 10.635954-127.0804 23.562654z" fill="url(#c)"/></svg>