<svg width="1600" height="211" viewBox="0 0 1600 211" fill="none" xmlns="http://www.w3.org/2000/svg">
<path d="M287.46 81.8261C292.367 81.8261 296.953 82.6261 301.22 84.2261C305.487 85.8261 309.167 88.2261 312.26 91.4261C315.46 94.6261 317.913 98.6794 319.62 103.586C321.433 108.493 322.34 114.253 322.34 120.866C322.34 127.586 321.433 133.399 319.62 138.306C317.807 143.213 315.247 147.266 311.94 150.466C308.74 153.666 304.847 156.066 300.26 157.666C295.673 159.159 290.66 159.906 285.22 159.906C279.993 159.906 275.247 159.266 270.98 157.986C266.82 156.813 263.407 155.426 260.74 153.826C258.5 152.439 256.953 151.106 256.1 149.826C255.247 148.439 254.82 146.626 254.82 144.386V54.1461C255.353 53.9328 256.153 53.7194 257.22 53.5061C258.393 53.1861 259.62 53.0261 260.9 53.0261C265.38 53.0261 267.62 54.9461 267.62 58.7861V87.4261C269.967 85.9328 272.74 84.6528 275.94 83.5861C279.247 82.4128 283.087 81.8261 287.46 81.8261ZM285.54 92.3861C281.807 92.3861 278.393 93.0794 275.3 94.4661C272.313 95.7461 269.753 97.2928 267.62 99.1061V144.386C269.22 145.559 271.513 146.679 274.5 147.746C277.593 148.813 281.167 149.346 285.22 149.346C288.847 149.346 292.1 148.813 294.98 147.746C297.967 146.573 300.527 144.813 302.66 142.466C304.793 140.119 306.447 137.186 307.62 133.666C308.793 130.039 309.38 125.773 309.38 120.866C309.38 115.959 308.793 111.693 307.62 108.066C306.447 104.439 304.793 101.506 302.66 99.2661C300.527 96.9194 297.967 95.2128 294.98 94.1461C292.1 92.9728 288.953 92.3861 285.54 92.3861Z" fill="#39B54A"/>
<path d="M407.753 120.866C407.753 126.839 406.899 132.226 405.193 137.026C403.486 141.826 401.033 145.933 397.833 149.346C394.739 152.759 390.953 155.373 386.473 157.186C381.993 158.999 376.979 159.906 371.433 159.906C365.886 159.906 360.873 158.999 356.393 157.186C351.913 155.373 348.073 152.759 344.873 149.346C341.673 145.933 339.219 141.826 337.513 137.026C335.806 132.226 334.953 126.839 334.953 120.866C334.953 114.893 335.806 109.506 337.513 104.706C339.326 99.9061 341.833 95.7994 345.033 92.3861C348.233 88.9728 352.073 86.3594 356.553 84.5461C361.033 82.7328 365.993 81.8261 371.433 81.8261C376.873 81.8261 381.833 82.7328 386.313 84.5461C390.793 86.3594 394.579 88.9728 397.673 92.3861C400.873 95.7994 403.326 99.9061 405.033 104.706C406.846 109.506 407.753 114.893 407.753 120.866ZM371.433 92.3861C364.179 92.3861 358.473 94.8928 354.313 99.9061C350.153 104.919 348.073 111.906 348.073 120.866C348.073 129.933 350.099 136.973 354.153 141.986C358.313 146.893 364.073 149.346 371.433 149.346C378.793 149.346 384.499 146.839 388.553 141.826C392.606 136.813 394.633 129.826 394.633 120.866C394.633 111.906 392.553 104.919 388.393 99.9061C384.339 94.8928 378.686 92.3861 371.433 92.3861Z" fill="#39B54A"/>
<path d="M449.63 159.906C442.163 159.906 436.083 158.253 431.39 154.946C426.803 151.639 424.51 146.146 424.51 138.466V62.4661C425.043 62.2528 425.843 62.0394 426.91 61.8261C428.083 61.5061 429.31 61.3461 430.59 61.3461C435.07 61.3461 437.31 63.2661 437.31 67.1061V85.5061H463.55C463.87 86.0394 464.19 86.7861 464.51 87.7461C464.83 88.5994 464.99 89.5594 464.99 90.6261C464.99 94.2528 463.39 96.0661 460.19 96.0661H437.31V137.666C437.31 141.933 438.483 144.973 440.83 146.786C443.283 148.493 446.697 149.346 451.07 149.346C452.883 149.346 454.91 149.026 457.15 148.386C459.39 147.746 461.257 146.999 462.75 146.146C463.39 146.786 463.977 147.586 464.51 148.546C465.043 149.506 465.31 150.626 465.31 151.906C465.31 154.253 463.923 156.173 461.15 157.666C458.377 159.159 454.537 159.906 449.63 159.906Z" fill="#39B54A"/>
<path d="M504.711 159.906C497.245 159.906 491.165 158.253 486.471 154.946C481.885 151.639 479.591 146.146 479.591 138.466V62.4661C480.125 62.2528 480.925 62.0394 481.991 61.8261C483.165 61.5061 484.391 61.3461 485.671 61.3461C490.151 61.3461 492.391 63.2661 492.391 67.1061V85.5061H518.631C518.951 86.0394 519.271 86.7861 519.591 87.7461C519.911 88.5994 520.071 89.5594 520.071 90.6261C520.071 94.2528 518.471 96.0661 515.271 96.0661H492.391V137.666C492.391 141.933 493.565 144.973 495.911 146.786C498.365 148.493 501.778 149.346 506.151 149.346C507.965 149.346 509.991 149.026 512.231 148.386C514.471 147.746 516.338 146.999 517.831 146.146C518.471 146.786 519.058 147.586 519.591 148.546C520.125 149.506 520.391 150.626 520.391 151.906C520.391 154.253 519.005 156.173 516.231 157.666C513.458 159.159 509.618 159.906 504.711 159.906Z" fill="#39B54A"/>
<path d="M549.061 157.506C548.528 157.719 547.728 157.933 546.661 158.146C545.595 158.466 544.421 158.626 543.141 158.626C538.555 158.626 536.261 156.706 536.261 152.866V54.1461C536.795 53.9328 537.595 53.7194 538.661 53.5061C539.835 53.1861 541.008 53.0261 542.181 53.0261C546.768 53.0261 549.061 54.9461 549.061 58.7861V157.506Z" fill="#39B54A"/>
<path d="M580.276 128.386C583.156 142.359 592.33 149.346 607.796 149.346C612.276 149.346 616.33 148.599 619.956 147.106C623.583 145.613 626.463 144.013 628.596 142.306C631.156 143.799 632.436 145.826 632.436 148.386C632.436 149.879 631.743 151.319 630.356 152.706C629.076 154.093 627.263 155.319 624.916 156.386C622.676 157.453 620.01 158.306 616.916 158.946C613.93 159.586 610.676 159.906 607.156 159.906C594.783 159.906 584.97 156.546 577.716 149.826C570.57 143.106 566.996 133.293 566.996 120.386C566.996 114.306 567.85 108.919 569.556 104.226C571.37 99.4261 573.823 95.3728 576.916 92.0661C580.116 88.7594 583.903 86.2528 588.276 84.5461C592.65 82.7328 597.396 81.8261 602.516 81.8261C607.316 81.8261 611.743 82.6261 615.796 84.2261C619.85 85.8261 623.316 88.1194 626.196 91.1061C629.183 93.9861 631.476 97.4528 633.076 101.506C634.783 105.453 635.636 109.826 635.636 114.626C635.636 116.973 635.103 118.679 634.036 119.746C632.97 120.706 631.476 121.293 629.556 121.506L580.276 128.386ZM602.356 92.2261C595.85 92.2261 590.463 94.5194 586.196 99.1061C581.93 103.586 579.69 110.039 579.476 118.466L623.476 112.386C622.943 106.519 620.863 101.719 617.236 97.9861C613.716 94.1461 608.756 92.2261 602.356 92.2261Z" fill="#39B54A"/>
<path d="M663.885 88.0661H695.565C695.885 88.5994 696.205 89.2928 696.525 90.1461C696.845 90.9994 697.005 92.0128 697.005 93.1861C697.005 96.7061 695.352 98.4661 692.045 98.4661H664.045V157.506C663.512 157.719 662.712 157.933 661.645 158.146C660.578 158.466 659.405 158.626 658.125 158.626C653.538 158.626 651.245 156.706 651.245 152.866V77.3461C651.245 67.9594 653.752 61.1861 658.765 57.0261C663.885 52.7594 670.978 50.6261 680.045 50.6261C686.125 50.6261 690.872 51.4261 694.285 53.0261C697.805 54.6261 699.565 56.5994 699.565 58.9461C699.565 61.2928 698.658 63.2661 696.845 64.8661C694.925 63.7994 692.525 62.9461 689.645 62.3061C686.765 61.5594 683.992 61.1861 681.325 61.1861C674.818 61.1861 670.285 62.5194 667.725 65.1861C665.165 67.8528 663.885 72.1194 663.885 77.9861V88.0661Z" fill="#39B54A"/>
<path d="M718.181 157.506C717.648 157.719 716.848 157.933 715.781 158.146C714.715 158.466 713.541 158.626 712.261 158.626C707.675 158.626 705.381 156.706 705.381 152.866V98.6261C705.381 96.1728 705.808 94.2528 706.661 92.8661C707.621 91.3728 709.168 89.9328 711.301 88.5461C714.075 86.7328 717.808 85.1861 722.501 83.9061C727.301 82.5194 732.688 81.8261 738.661 81.8261C747.195 81.8261 751.461 83.9594 751.461 88.2261C751.461 89.2928 751.301 90.3061 750.981 91.2661C750.661 92.1194 750.235 92.8661 749.701 93.5061C748.635 93.2928 747.248 93.0794 745.541 92.8661C743.835 92.6528 742.128 92.5461 740.421 92.5461C735.515 92.5461 731.195 93.0794 727.461 94.1461C723.728 95.1061 720.635 96.2794 718.181 97.6661V157.506Z" fill="#39B54A"/>
<path d="M770.833 128.386C773.713 142.359 782.886 149.346 798.353 149.346C802.833 149.346 806.886 148.599 810.513 147.106C814.139 145.613 817.019 144.013 819.153 142.306C821.713 143.799 822.993 145.826 822.993 148.386C822.993 149.879 822.299 151.319 820.913 152.706C819.633 154.093 817.819 155.319 815.473 156.386C813.233 157.453 810.566 158.306 807.473 158.946C804.486 159.586 801.233 159.906 797.713 159.906C785.339 159.906 775.526 156.546 768.273 149.826C761.126 143.106 757.553 133.293 757.553 120.386C757.553 114.306 758.406 108.919 760.113 104.226C761.926 99.4261 764.379 95.3728 767.473 92.0661C770.673 88.7594 774.459 86.2528 778.833 84.5461C783.206 82.7328 787.953 81.8261 793.073 81.8261C797.873 81.8261 802.299 82.6261 806.353 84.2261C810.406 85.8261 813.873 88.1194 816.753 91.1061C819.739 93.9861 822.033 97.4528 823.633 101.506C825.339 105.453 826.193 109.826 826.193 114.626C826.193 116.973 825.659 118.679 824.593 119.746C823.526 120.706 822.033 121.293 820.113 121.506L770.833 128.386ZM792.913 92.2261C786.406 92.2261 781.019 94.5194 776.753 99.1061C772.486 103.586 770.246 110.039 770.033 118.466L814.033 112.386C813.499 106.519 811.419 101.719 807.793 97.9861C804.273 94.1461 799.313 92.2261 792.913 92.2261Z" fill="#39B54A"/>
<path d="M850.601 128.386C853.481 142.359 862.655 149.346 878.121 149.346C882.601 149.346 886.655 148.599 890.281 147.106C893.908 145.613 896.788 144.013 898.921 142.306C901.481 143.799 902.761 145.826 902.761 148.386C902.761 149.879 902.068 151.319 900.681 152.706C899.401 154.093 897.588 155.319 895.241 156.386C893.001 157.453 890.335 158.306 887.241 158.946C884.255 159.586 881.001 159.906 877.481 159.906C865.108 159.906 855.295 156.546 848.041 149.826C840.895 143.106 837.321 133.293 837.321 120.386C837.321 114.306 838.175 108.919 839.881 104.226C841.695 99.4261 844.148 95.3728 847.241 92.0661C850.441 88.7594 854.228 86.2528 858.601 84.5461C862.975 82.7328 867.721 81.8261 872.841 81.8261C877.641 81.8261 882.068 82.6261 886.121 84.2261C890.175 85.8261 893.641 88.1194 896.521 91.1061C899.508 93.9861 901.801 97.4528 903.401 101.506C905.108 105.453 905.961 109.826 905.961 114.626C905.961 116.973 905.428 118.679 904.361 119.746C903.295 120.706 901.801 121.293 899.881 121.506L850.601 128.386ZM872.681 92.2261C866.175 92.2261 860.788 94.5194 856.521 99.1061C852.255 103.586 850.015 110.039 849.801 118.466L893.801 112.386C893.268 106.519 891.188 101.719 887.561 97.9861C884.041 94.1461 879.081 92.2261 872.681 92.2261Z" fill="#39B54A"/>
<path d="M976.86 82.4661C978.673 82.4661 980.113 82.9461 981.18 83.9061C982.353 84.8661 982.94 86.2527 982.94 88.0661C982.94 89.2394 982.513 91.3194 981.66 94.3061C980.807 97.1861 979.687 100.653 978.3 104.706C976.913 108.653 975.313 113.026 973.5 117.826C971.793 122.626 969.927 127.426 967.9 132.226C965.98 136.919 964.007 141.453 961.98 145.826C960.06 150.199 958.247 153.986 956.54 157.186C956.007 157.613 955.047 157.986 953.66 158.306C952.38 158.626 950.993 158.786 949.5 158.786C945.553 158.786 942.993 157.666 941.82 155.426C940.86 153.613 939.633 151.106 938.14 147.906C936.647 144.706 935.047 141.079 933.34 137.026C931.633 132.973 929.873 128.653 928.06 124.066C926.247 119.479 924.487 114.946 922.78 110.466C921.073 105.879 919.473 101.506 917.98 97.3461C916.487 93.0794 915.26 89.2927 914.3 85.986C915.047 84.9194 916.06 84.066 917.34 83.426C918.62 82.7861 919.9 82.4661 921.18 82.4661C923.1 82.4661 924.54 82.9461 925.5 83.9061C926.567 84.8661 927.527 86.4661 928.38 88.7061L938.3 117.346C938.94 119.159 939.74 121.399 940.7 124.066C941.66 126.626 942.62 129.293 943.58 132.066C944.647 134.733 945.66 137.346 946.62 139.906C947.687 142.466 948.54 144.653 949.18 146.466H949.82C954.087 135.693 958.033 125.079 961.66 114.626C965.393 104.173 968.647 93.8794 971.42 83.746C972.807 82.8927 974.62 82.4661 976.86 82.4661Z" fill="#008080"/>
<path d="M1022.67 149.506C1027.15 149.506 1030.83 149.079 1033.71 148.226C1036.7 147.266 1038.83 146.359 1040.11 145.506V122.306L1020.27 124.386C1014.72 124.919 1010.62 126.199 1007.95 128.226C1005.28 130.146 1003.95 133.026 1003.95 136.866C1003.95 140.919 1005.5 144.066 1008.59 146.306C1011.68 148.439 1016.38 149.506 1022.67 149.506ZM1022.51 81.826C1031.79 81.826 1039.15 83.9061 1044.59 88.0661C1050.03 92.2261 1052.75 98.7861 1052.75 107.746V145.666C1052.75 148.013 1052.27 149.826 1051.31 151.106C1050.46 152.279 1049.12 153.399 1047.31 154.466C1044.75 155.959 1041.34 157.239 1037.07 158.306C1032.91 159.479 1028.11 160.066 1022.67 160.066C1012.64 160.066 1004.86 158.093 999.309 154.146C993.869 150.199 991.149 144.493 991.149 137.026C991.149 129.986 993.442 124.706 998.029 121.186C1002.62 117.559 1009.07 115.319 1017.39 114.466L1040.11 112.226V107.746C1040.11 102.413 1038.51 98.5194 1035.31 96.0661C1032.11 93.6127 1027.79 92.3861 1022.35 92.3861C1017.87 92.3861 1013.66 93.0261 1009.71 94.3061C1005.76 95.5861 1002.24 97.0261 999.149 98.6261C998.295 97.8794 997.495 97.0261 996.749 96.0661C996.109 95.1061 995.789 94.0394 995.789 92.8661C995.789 91.3727 996.162 90.1461 996.909 89.1861C997.655 88.2261 998.829 87.3194 1000.43 86.4661C1003.31 84.9727 1006.62 83.8527 1010.35 83.1061C1014.08 82.2527 1018.14 81.826 1022.51 81.826Z" fill="#008080"/>
<path d="M1124.11 109.666C1124.11 103.693 1122.41 99.3194 1118.99 96.5461C1115.69 93.7727 1111.21 92.3861 1105.55 92.3861C1101.29 92.3861 1097.5 92.9194 1094.19 93.986C1090.89 95.0527 1088.06 96.2794 1085.71 97.666V157.506C1085.18 157.719 1084.38 157.933 1083.31 158.146C1082.25 158.466 1081.07 158.626 1079.79 158.626C1075.21 158.626 1072.91 156.706 1072.91 152.866V98.3061C1072.91 96.0661 1073.34 94.2527 1074.19 92.8661C1075.15 91.3727 1076.75 89.9327 1078.99 88.546C1081.77 86.8394 1085.45 85.2927 1090.03 83.9061C1094.62 82.5194 1099.79 81.826 1105.55 81.826C1115.26 81.826 1122.89 84.0127 1128.43 88.3861C1134.09 92.7594 1136.91 99.6394 1136.91 109.026V157.506C1136.38 157.719 1135.53 157.933 1134.35 158.146C1133.29 158.466 1132.17 158.626 1130.99 158.626C1126.41 158.626 1124.11 156.706 1124.11 152.866V109.666Z" fill="#008080"/>
<path d="M1191.92 92.5461C1188.29 92.5461 1184.93 93.186 1181.84 94.466C1178.75 95.6394 1176.08 97.4527 1173.84 99.9061C1171.6 102.253 1169.84 105.239 1168.56 108.866C1167.28 112.386 1166.64 116.439 1166.64 121.026C1166.64 130.199 1168.93 137.239 1173.52 142.146C1178.11 146.946 1184.24 149.346 1191.92 149.346C1196.4 149.346 1200.13 148.759 1203.12 147.586C1206.11 146.306 1208.77 144.866 1211.12 143.266C1212.29 143.906 1213.25 144.706 1214 145.666C1214.75 146.626 1215.12 147.799 1215.12 149.186C1215.12 150.679 1214.53 152.066 1213.36 153.346C1212.19 154.626 1210.53 155.746 1208.4 156.706C1206.37 157.666 1203.92 158.413 1201.04 158.946C1198.27 159.586 1195.23 159.906 1191.92 159.906C1186.37 159.906 1181.25 159.106 1176.56 157.506C1171.87 155.906 1167.81 153.506 1164.4 150.306C1160.99 147.106 1158.32 143.106 1156.4 138.306C1154.48 133.399 1153.52 127.639 1153.52 121.026C1153.52 114.519 1154.53 108.866 1156.56 104.066C1158.59 99.1594 1161.31 95.0527 1164.72 91.7461C1168.13 88.4394 1172.13 85.986 1176.72 84.3861C1181.41 82.6794 1186.37 81.826 1191.6 81.826C1194.91 81.826 1197.95 82.1461 1200.72 82.7861C1203.6 83.3194 1206.05 84.1194 1208.08 85.186C1210.11 86.2527 1211.65 87.4794 1212.72 88.8661C1213.89 90.1461 1214.48 91.4794 1214.48 92.8661C1214.48 94.1461 1214.11 95.2661 1213.36 96.2261C1212.61 97.1861 1211.65 97.9327 1210.48 98.466C1208.13 96.8661 1205.57 95.4794 1202.8 94.3061C1200.03 93.1327 1196.4 92.5461 1191.92 92.5461Z" fill="#008080"/>
<path d="M1297.65 120.866C1297.65 126.839 1296.8 132.226 1295.09 137.026C1293.39 141.826 1290.93 145.933 1287.73 149.346C1284.64 152.759 1280.85 155.373 1276.37 157.186C1271.89 158.999 1266.88 159.906 1261.33 159.906C1255.79 159.906 1250.77 158.999 1246.29 157.186C1241.81 155.373 1237.97 152.759 1234.77 149.346C1231.57 145.933 1229.12 141.826 1227.41 137.026C1225.71 132.226 1224.85 126.839 1224.85 120.866C1224.85 114.893 1225.71 109.506 1227.41 104.706C1229.23 99.9061 1231.73 95.7994 1234.93 92.3861C1238.13 88.9727 1241.97 86.3594 1246.45 84.546C1250.93 82.7327 1255.89 81.826 1261.33 81.826C1266.77 81.826 1271.73 82.7327 1276.21 84.546C1280.69 86.3594 1284.48 88.9727 1287.57 92.3861C1290.77 95.7994 1293.23 99.9061 1294.93 104.706C1296.75 109.506 1297.65 114.893 1297.65 120.866ZM1261.33 92.3861C1254.08 92.3861 1248.37 94.8927 1244.21 99.9061C1240.05 104.919 1237.97 111.906 1237.97 120.866C1237.97 129.933 1240 136.973 1244.05 141.986C1248.21 146.893 1253.97 149.346 1261.33 149.346C1268.69 149.346 1274.4 146.839 1278.45 141.826C1282.51 136.813 1284.53 129.826 1284.53 120.866C1284.53 111.906 1282.45 104.919 1278.29 99.9061C1274.24 94.8927 1268.59 92.3861 1261.33 92.3861Z" fill="#008080"/>
<path d="M1314.25 84.2261C1314.78 84.0127 1315.58 83.7994 1316.65 83.5861C1317.82 83.2661 1319.05 83.1061 1320.33 83.1061C1324.81 83.1061 1327.05 85.0794 1327.05 89.0261V130.146C1327.05 137.079 1328.86 142.039 1332.49 145.026C1336.12 147.906 1341.13 149.346 1347.53 149.346C1351.8 149.346 1355.42 148.919 1358.41 148.066C1361.4 147.106 1363.74 146.146 1365.45 145.186V84.2261C1365.98 84.0127 1366.78 83.7994 1367.85 83.5861C1369.02 83.2661 1370.2 83.1061 1371.37 83.1061C1375.96 83.1061 1378.25 85.0794 1378.25 89.0261V144.706C1378.25 146.946 1377.93 148.759 1377.29 150.146C1376.76 151.426 1375.37 152.706 1373.13 153.986C1370.68 155.373 1367.26 156.706 1362.89 157.986C1358.62 159.266 1353.45 159.906 1347.37 159.906C1336.7 159.906 1328.49 157.559 1322.73 152.866C1317.08 148.173 1314.25 140.813 1314.25 130.786V84.2261Z" fill="#008080"/>
<path d="M1454.38 82.4661C1456.19 82.4661 1457.63 82.9461 1458.7 83.9061C1459.87 84.8661 1460.46 86.2527 1460.46 88.0661C1460.46 89.2394 1460.03 91.3194 1459.18 94.3061C1458.33 97.1861 1457.21 100.653 1455.82 104.706C1454.43 108.653 1452.83 113.026 1451.02 117.826C1449.31 122.626 1447.45 127.426 1445.42 132.226C1443.5 136.919 1441.53 141.453 1439.5 145.826C1437.58 150.199 1435.77 153.986 1434.06 157.186C1433.53 157.613 1432.57 157.986 1431.18 158.306C1429.9 158.626 1428.51 158.786 1427.02 158.786C1423.07 158.786 1420.51 157.666 1419.34 155.426C1418.38 153.613 1417.15 151.106 1415.66 147.906C1414.17 144.706 1412.57 141.079 1410.86 137.026C1409.15 132.973 1407.39 128.653 1405.58 124.066C1403.77 119.479 1402.01 114.946 1400.3 110.466C1398.59 105.879 1396.99 101.506 1395.5 97.3461C1394.01 93.0794 1392.78 89.2927 1391.82 85.986C1392.57 84.9194 1393.58 84.066 1394.86 83.426C1396.14 82.7861 1397.42 82.4661 1398.7 82.4661C1400.62 82.4661 1402.06 82.9461 1403.02 83.9061C1404.09 84.8661 1405.05 86.4661 1405.9 88.7061L1415.82 117.346C1416.46 119.159 1417.26 121.399 1418.22 124.066C1419.18 126.626 1420.14 129.293 1421.1 132.066C1422.17 134.733 1423.18 137.346 1424.14 139.906C1425.21 142.466 1426.06 144.653 1426.7 146.466H1427.34C1431.61 135.693 1435.55 125.079 1439.18 114.626C1442.91 104.173 1446.17 93.8794 1448.94 83.746C1450.33 82.8927 1452.14 82.4661 1454.38 82.4661Z" fill="#008080"/>
<path d="M1482.91 128.386C1485.79 142.359 1494.96 149.346 1510.43 149.346C1514.91 149.346 1518.96 148.599 1522.59 147.106C1526.21 145.613 1529.09 144.013 1531.23 142.306C1533.79 143.799 1535.07 145.826 1535.07 148.386C1535.07 149.879 1534.37 151.319 1532.99 152.706C1531.71 154.093 1529.89 155.319 1527.55 156.386C1525.31 157.453 1522.64 158.306 1519.55 158.946C1516.56 159.586 1513.31 159.906 1509.79 159.906C1497.41 159.906 1487.6 156.546 1480.35 149.826C1473.2 143.106 1469.63 133.293 1469.63 120.386C1469.63 114.306 1470.48 108.919 1472.19 104.226C1474 99.426 1476.45 95.3727 1479.55 92.0661C1482.75 88.7594 1486.53 86.2527 1490.91 84.546C1495.28 82.7327 1500.03 81.826 1505.15 81.826C1509.95 81.826 1514.37 82.6261 1518.43 84.2261C1522.48 85.8261 1525.95 88.1194 1528.83 91.106C1531.81 93.986 1534.11 97.4527 1535.71 101.506C1537.41 105.453 1538.27 109.826 1538.27 114.626C1538.27 116.973 1537.73 118.679 1536.67 119.746C1535.6 120.706 1534.11 121.293 1532.19 121.506L1482.91 128.386ZM1504.99 92.226C1498.48 92.226 1493.09 94.5194 1488.83 99.1061C1484.56 103.586 1482.32 110.039 1482.11 118.466L1526.11 112.386C1525.57 106.519 1523.49 101.719 1519.87 97.9861C1516.35 94.1461 1511.39 92.226 1504.99 92.226Z" fill="#008080"/>
<path d="M1566.36 157.506C1565.82 157.719 1565.02 157.933 1563.96 158.146C1562.89 158.466 1561.72 158.626 1560.44 158.626C1555.85 158.626 1553.56 156.706 1553.56 152.866V98.6261C1553.56 96.1727 1553.98 94.2527 1554.84 92.8661C1555.8 91.3727 1557.34 89.9327 1559.48 88.546C1562.25 86.7327 1565.98 85.1861 1570.68 83.9061C1575.48 82.5194 1580.86 81.826 1586.84 81.826C1595.37 81.826 1599.64 83.9594 1599.64 88.226C1599.64 89.2927 1599.48 90.3061 1599.16 91.2661C1598.84 92.1194 1598.41 92.8661 1597.88 93.5061C1596.81 93.2927 1595.42 93.0794 1593.72 92.8661C1592.01 92.6527 1590.3 92.5461 1588.6 92.5461C1583.69 92.5461 1579.37 93.0794 1575.64 94.146C1571.9 95.106 1568.81 96.2794 1566.36 97.666V157.506Z" fill="#008080"/>
<path d="M65.2626 23.58C57.4373 26.2627 50.0799 29.94 43.3146 34.4414V80.4267C43.3146 84.4267 42.9946 87.3067 42.9946 87.3067H43.3146C43.3146 87.3067 50.5146 75.948 67.7933 75.948C89.8746 75.948 103.953 93.3867 103.953 118.667C103.953 144.584 88.1133 161.384 66.5146 161.384C49.5546 161.384 42.196 149.864 42.196 149.864H41.8746C41.8746 149.864 42.196 152.104 42.196 155.304V159.463H22.996V52.5721C8.92663 69.2667 0.442627 90.8267 0.442627 114.367C0.442627 167.359 43.4026 210.315 96.396 210.315C149.385 210.315 192.343 167.359 192.343 114.367V95.1454H188.22C185.981 95.1454 184.541 95.9467 183.74 98.0254L160.381 159.463H136.223L112.864 98.0254C112.063 95.9467 110.623 95.1454 108.383 95.1454H106.624V77.8667H118.303C125.023 77.8667 128.223 79.948 130.303 85.5467L145.661 128.424C147.423 133.225 148.701 140.104 148.701 140.104H149.021C149.021 140.104 150.303 133.225 151.901 128.424L167.261 85.5467C169.341 79.948 172.7 77.8667 179.261 77.8667H192.343V0.0173798C192.343 0.0173798 102.977 10.6534 65.2626 23.58Z" fill="url(#paint0_linear)"/>
<path d="M42.676 119.145C42.676 131.785 49.396 144.265 62.9947 144.265C74.0334 144.265 83.4747 135.145 83.4747 118.987C83.4747 103.467 75.1533 93.3867 63.1547 93.3867C52.5947 93.3867 42.676 101.067 42.676 119.145" fill="url(#paint1_linear)"/>
<defs>
<linearGradient id="paint0_linear" x1="96.3925" y1="210.315" x2="96.3925" y2="0.018111" gradientUnits="userSpaceOnUse">
<stop stop-color="#008080"/>
<stop offset="1" stop-color="#39B54A"/>
</linearGradient>
<linearGradient id="paint1_linear" x1="63.0749" y1="210.315" x2="63.0749" y2="0.0182608" gradientUnits="userSpaceOnUse">
<stop stop-color="#008080"/>
<stop offset="1" stop-color="#39B54A"/>
</linearGradient>
</defs>
</svg>
