<svg fill="none" height="212" viewBox="0 0 193 212" width="193" xmlns="http://www.w3.org/2000/svg" xmlns:xlink="http://www.w3.org/1999/xlink"><linearGradient id="a"><stop offset="0" stop-color="#008080"/><stop offset="1" stop-color="#39b54a"/></linearGradient><linearGradient id="b" gradientUnits="userSpaceOnUse" x1="63.0749" x2="63.0749" xlink:href="#a" y1="211.167" y2=".869823"/><linearGradient id="c" gradientUnits="userSpaceOnUse" x1="96.3925" x2="96.3925" xlink:href="#a" y1="211.167" y2=".869674"/><path d="m42.676 119.997c0 12.64 6.72 25.12 20.3187 25.12 11.0387 0 20.48-9.12 20.48-25.279 0-15.52-8.3214-25.5997-20.32-25.5997-10.56 0-20.4787 7.6797-20.4787 25.7587" fill="url(#b)"/><path d="m65.2626 24.4316c-7.8253 2.6827-15.1827 6.36-21.948 10.8613v45.9854c0 4-.32 6.8799-.32 6.8799h.32s7.2-11.3586 24.4787-11.3586c22.0813 0 36.1597 17.4387 36.1597 42.7184 0 25.918-15.8397 42.718-37.4384 42.718-16.96 0-24.3186-11.52-24.3186-11.52h-.3214s.3214 2.24.3214 5.44v4.158h-19.2v-106.8904c-14.06937 16.6947-22.553373 38.2547-22.553373 61.7944 0 52.992 42.959973 95.948 95.953373 95.948 52.989 0 95.947-42.956 95.947-95.948v-19.221h-4.123c-2.239 0-3.679.8013-4.48 2.8799l-23.359 61.4371h-24.158l-23.359-61.4371c-.801-2.0786-2.241-2.8799-4.481-2.8799h-1.759v-17.2787h11.679c6.72 0 9.92 2.0813 12 7.6799l15.358 42.8778c1.762 4.801 3.04 11.68 3.04 11.68h.32s1.282-6.879 2.88-11.68l15.36-42.8778c2.08-5.5986 5.439-7.6799 12-7.6799h13.082v-77.849358s-89.366 10.635958-127.0804 23.562658z" fill="url(#c)"/></svg>