<svg width="1600" height="232" viewBox="0 0 1600 232" fill="none" xmlns="http://www.w3.org/2000/svg">
<g clip-path="url(#clip0)">
<rect width="1600" height="232" fill="white"/>
<path d="M287.864 83.8261C292.77 83.8261 297.357 84.6261 301.624 86.2261C305.89 87.8261 309.57 90.2261 312.664 93.4261C315.864 96.6261 318.317 100.679 320.024 105.586C321.837 110.493 322.744 116.253 322.744 122.866C322.744 129.586 321.837 135.399 320.024 140.306C318.21 145.213 315.65 149.266 312.344 152.466C309.144 155.666 305.25 158.066 300.664 159.666C296.077 161.159 291.064 161.906 285.624 161.906C280.397 161.906 275.65 161.266 271.384 159.986C267.224 158.813 263.81 157.426 261.144 155.826C258.904 154.439 257.357 153.106 256.504 151.826C255.65 150.439 255.224 148.626 255.224 146.386V56.1461C255.757 55.9328 256.557 55.7194 257.624 55.5061C258.797 55.1861 260.024 55.0261 261.304 55.0261C265.784 55.0261 268.024 56.9461 268.024 60.7861V89.4261C270.37 87.9328 273.144 86.6528 276.344 85.5861C279.65 84.4128 283.49 83.8261 287.864 83.8261ZM285.944 94.3861C282.21 94.3861 278.797 95.0794 275.704 96.4661C272.717 97.7461 270.157 99.2928 268.024 101.106V146.386C269.624 147.559 271.917 148.679 274.904 149.746C277.997 150.813 281.57 151.346 285.624 151.346C289.25 151.346 292.504 150.813 295.384 149.746C298.37 148.573 300.93 146.813 303.064 144.466C305.197 142.119 306.85 139.186 308.024 135.666C309.197 132.039 309.784 127.773 309.784 122.866C309.784 117.959 309.197 113.693 308.024 110.066C306.85 106.439 305.197 103.506 303.064 101.266C300.93 98.9194 298.37 97.2128 295.384 96.1461C292.504 94.9728 289.357 94.3861 285.944 94.3861Z" fill="#39B54A"/>
<path d="M408.156 122.866C408.156 128.839 407.303 134.226 405.596 139.026C403.889 143.826 401.436 147.933 398.236 151.346C395.143 154.759 391.356 157.373 386.876 159.186C382.396 160.999 377.383 161.906 371.836 161.906C366.289 161.906 361.276 160.999 356.796 159.186C352.316 157.373 348.476 154.759 345.276 151.346C342.076 147.933 339.623 143.826 337.916 139.026C336.209 134.226 335.356 128.839 335.356 122.866C335.356 116.893 336.209 111.506 337.916 106.706C339.729 101.906 342.236 97.7994 345.436 94.3861C348.636 90.9728 352.476 88.3594 356.956 86.5461C361.436 84.7328 366.396 83.8261 371.836 83.8261C377.276 83.8261 382.236 84.7328 386.716 86.5461C391.196 88.3594 394.983 90.9728 398.076 94.3861C401.276 97.7994 403.729 101.906 405.436 106.706C407.249 111.506 408.156 116.893 408.156 122.866ZM371.836 94.3861C364.583 94.3861 358.876 96.8928 354.716 101.906C350.556 106.919 348.476 113.906 348.476 122.866C348.476 131.933 350.503 138.973 354.556 143.986C358.716 148.893 364.476 151.346 371.836 151.346C379.196 151.346 384.903 148.839 388.956 143.826C393.009 138.813 395.036 131.826 395.036 122.866C395.036 113.906 392.956 106.919 388.796 101.906C384.743 96.8928 379.089 94.3861 371.836 94.3861Z" fill="#39B54A"/>
<path d="M450.034 161.906C442.567 161.906 436.487 160.253 431.794 156.946C427.207 153.639 424.914 148.146 424.914 140.466V64.4661C425.447 64.2528 426.247 64.0394 427.314 63.8261C428.487 63.5061 429.714 63.3461 430.994 63.3461C435.474 63.3461 437.714 65.2661 437.714 69.1061V87.5061H463.954C464.274 88.0394 464.594 88.7861 464.914 89.7461C465.234 90.5994 465.394 91.5594 465.394 92.6261C465.394 96.2528 463.794 98.0661 460.594 98.0661H437.714V139.666C437.714 143.933 438.887 146.973 441.234 148.786C443.687 150.493 447.1 151.346 451.474 151.346C453.287 151.346 455.314 151.026 457.554 150.386C459.794 149.746 461.66 148.999 463.154 148.146C463.794 148.786 464.38 149.586 464.914 150.546C465.447 151.506 465.714 152.626 465.714 153.906C465.714 156.253 464.327 158.173 461.554 159.666C458.78 161.159 454.94 161.906 450.034 161.906Z" fill="#39B54A"/>
<path d="M505.115 161.906C497.648 161.906 491.568 160.253 486.875 156.946C482.288 153.639 479.995 148.146 479.995 140.466V64.4661C480.528 64.2528 481.328 64.0394 482.395 63.8261C483.568 63.5061 484.795 63.3461 486.075 63.3461C490.555 63.3461 492.795 65.2661 492.795 69.1061V87.5061H519.035C519.355 88.0394 519.675 88.7861 519.995 89.7461C520.315 90.5994 520.475 91.5594 520.475 92.6261C520.475 96.2528 518.875 98.0661 515.675 98.0661H492.795V139.666C492.795 143.933 493.968 146.973 496.315 148.786C498.768 150.493 502.182 151.346 506.555 151.346C508.368 151.346 510.395 151.026 512.635 150.386C514.875 149.746 516.742 148.999 518.235 148.146C518.875 148.786 519.462 149.586 519.995 150.546C520.528 151.506 520.795 152.626 520.795 153.906C520.795 156.253 519.408 158.173 516.635 159.666C513.862 161.159 510.022 161.906 505.115 161.906Z" fill="#39B54A"/>
<path d="M549.465 159.506C548.932 159.719 548.132 159.933 547.065 160.146C545.998 160.466 544.825 160.626 543.545 160.626C538.958 160.626 536.665 158.706 536.665 154.866V56.1461C537.198 55.9328 537.998 55.7194 539.065 55.5061C540.238 55.1861 541.412 55.0261 542.585 55.0261C547.172 55.0261 549.465 56.9461 549.465 60.7861V159.506Z" fill="#39B54A"/>
<path d="M580.68 130.386C583.56 144.359 592.733 151.346 608.2 151.346C612.68 151.346 616.733 150.599 620.36 149.106C623.987 147.613 626.867 146.013 629 144.306C631.56 145.799 632.84 147.826 632.84 150.386C632.84 151.879 632.147 153.319 630.76 154.706C629.48 156.093 627.667 157.319 625.32 158.386C623.08 159.453 620.413 160.306 617.32 160.946C614.333 161.586 611.08 161.906 607.56 161.906C595.187 161.906 585.373 158.546 578.12 151.826C570.973 145.106 567.4 135.293 567.4 122.386C567.4 116.306 568.253 110.919 569.96 106.226C571.773 101.426 574.227 97.3728 577.32 94.0661C580.52 90.7594 584.307 88.2528 588.68 86.5461C593.053 84.7328 597.8 83.8261 602.92 83.8261C607.72 83.8261 612.147 84.6261 616.2 86.2261C620.253 87.8261 623.72 90.1194 626.6 93.1061C629.587 95.9861 631.88 99.4528 633.48 103.506C635.187 107.453 636.04 111.826 636.04 116.626C636.04 118.973 635.507 120.679 634.44 121.746C633.373 122.706 631.88 123.293 629.96 123.506L580.68 130.386ZM602.76 94.2261C596.253 94.2261 590.867 96.5194 586.6 101.106C582.333 105.586 580.093 112.039 579.88 120.466L623.88 114.386C623.347 108.519 621.267 103.719 617.64 99.9861C614.12 96.1461 609.16 94.2261 602.76 94.2261Z" fill="#39B54A"/>
<path d="M664.289 90.0661H695.969C696.289 90.5994 696.609 91.2928 696.929 92.1461C697.249 92.9994 697.409 94.0128 697.409 95.1861C697.409 98.7061 695.755 100.466 692.449 100.466H664.449V159.506C663.915 159.719 663.115 159.933 662.049 160.146C660.982 160.466 659.809 160.626 658.529 160.626C653.942 160.626 651.649 158.706 651.649 154.866V79.3461C651.649 69.9594 654.155 63.1861 659.169 59.0261C664.289 54.7594 671.382 52.6261 680.449 52.6261C686.529 52.6261 691.275 53.4261 694.689 55.0261C698.209 56.6261 699.969 58.5994 699.969 60.9461C699.969 63.2928 699.062 65.2661 697.249 66.8661C695.329 65.7994 692.929 64.9461 690.049 64.3061C687.169 63.5594 684.395 63.1861 681.729 63.1861C675.222 63.1861 670.689 64.5194 668.129 67.1861C665.569 69.8528 664.289 74.1194 664.289 79.9861V90.0661Z" fill="#39B54A"/>
<path d="M718.585 159.506C718.052 159.719 717.252 159.933 716.185 160.146C715.118 160.466 713.945 160.626 712.665 160.626C708.078 160.626 705.785 158.706 705.785 154.866V100.626C705.785 98.1728 706.212 96.2528 707.065 94.8661C708.025 93.3728 709.572 91.9328 711.705 90.5461C714.478 88.7328 718.212 87.1861 722.905 85.9061C727.705 84.5194 733.092 83.8261 739.065 83.8261C747.598 83.8261 751.865 85.9594 751.865 90.2261C751.865 91.2928 751.705 92.3061 751.385 93.2661C751.065 94.1194 750.638 94.8661 750.105 95.5061C749.038 95.2928 747.652 95.0794 745.945 94.8661C744.238 94.6528 742.532 94.5461 740.825 94.5461C735.918 94.5461 731.598 95.0794 727.865 96.1461C724.132 97.1061 721.038 98.2794 718.585 99.6661V159.506Z" fill="#39B54A"/>
<path d="M771.236 130.386C774.116 144.359 783.289 151.346 798.756 151.346C803.236 151.346 807.289 150.599 810.916 149.106C814.543 147.613 817.423 146.013 819.556 144.306C822.116 145.799 823.396 147.826 823.396 150.386C823.396 151.879 822.703 153.319 821.316 154.706C820.036 156.093 818.223 157.319 815.876 158.386C813.636 159.453 810.969 160.306 807.876 160.946C804.889 161.586 801.636 161.906 798.116 161.906C785.743 161.906 775.929 158.546 768.676 151.826C761.529 145.106 757.956 135.293 757.956 122.386C757.956 116.306 758.809 110.919 760.516 106.226C762.329 101.426 764.783 97.3728 767.876 94.0661C771.076 90.7594 774.863 88.2528 779.236 86.5461C783.609 84.7328 788.356 83.8261 793.476 83.8261C798.276 83.8261 802.703 84.6261 806.756 86.2261C810.809 87.8261 814.276 90.1194 817.156 93.1061C820.143 95.9861 822.436 99.4528 824.036 103.506C825.743 107.453 826.596 111.826 826.596 116.626C826.596 118.973 826.063 120.679 824.996 121.746C823.929 122.706 822.436 123.293 820.516 123.506L771.236 130.386ZM793.316 94.2261C786.809 94.2261 781.423 96.5194 777.156 101.106C772.889 105.586 770.649 112.039 770.436 120.466L814.436 114.386C813.903 108.519 811.823 103.719 808.196 99.9861C804.676 96.1461 799.716 94.2261 793.316 94.2261Z" fill="#39B54A"/>
<path d="M851.005 130.386C853.885 144.359 863.058 151.346 878.525 151.346C883.005 151.346 887.058 150.599 890.685 149.106C894.312 147.613 897.192 146.013 899.325 144.306C901.885 145.799 903.165 147.826 903.165 150.386C903.165 151.879 902.472 153.319 901.085 154.706C899.805 156.093 897.992 157.319 895.645 158.386C893.405 159.453 890.738 160.306 887.645 160.946C884.658 161.586 881.405 161.906 877.885 161.906C865.512 161.906 855.698 158.546 848.445 151.826C841.298 145.106 837.725 135.293 837.725 122.386C837.725 116.306 838.578 110.919 840.285 106.226C842.098 101.426 844.552 97.3728 847.645 94.0661C850.845 90.7594 854.632 88.2528 859.005 86.5461C863.378 84.7328 868.125 83.8261 873.245 83.8261C878.045 83.8261 882.472 84.6261 886.525 86.2261C890.578 87.8261 894.045 90.1194 896.925 93.1061C899.912 95.9861 902.205 99.4528 903.805 103.506C905.512 107.453 906.365 111.826 906.365 116.626C906.365 118.973 905.832 120.679 904.765 121.746C903.698 122.706 902.205 123.293 900.285 123.506L851.005 130.386ZM873.085 94.2261C866.578 94.2261 861.192 96.5194 856.925 101.106C852.658 105.586 850.418 112.039 850.205 120.466L894.205 114.386C893.672 108.519 891.592 103.719 887.965 99.9861C884.445 96.1461 879.485 94.2261 873.085 94.2261Z" fill="#39B54A"/>
<path d="M977.264 84.4661C979.077 84.4661 980.517 84.9461 981.584 85.9061C982.757 86.8661 983.344 88.2527 983.344 90.0661C983.344 91.2394 982.917 93.3194 982.064 96.3061C981.21 99.1861 980.09 102.653 978.704 106.706C977.317 110.653 975.717 115.026 973.904 119.826C972.197 124.626 970.33 129.426 968.304 134.226C966.384 138.919 964.41 143.453 962.384 147.826C960.464 152.199 958.65 155.986 956.944 159.186C956.41 159.613 955.45 159.986 954.064 160.306C952.784 160.626 951.397 160.786 949.904 160.786C945.957 160.786 943.397 159.666 942.224 157.426C941.264 155.613 940.037 153.106 938.544 149.906C937.05 146.706 935.45 143.079 933.744 139.026C932.037 134.973 930.277 130.653 928.464 126.066C926.65 121.479 924.89 116.946 923.184 112.466C921.477 107.879 919.877 103.506 918.384 99.3461C916.89 95.0794 915.664 91.2927 914.704 87.986C915.45 86.9194 916.464 86.066 917.744 85.426C919.024 84.7861 920.304 84.4661 921.584 84.4661C923.504 84.4661 924.944 84.9461 925.904 85.9061C926.97 86.8661 927.93 88.4661 928.784 90.7061L938.704 119.346C939.344 121.159 940.144 123.399 941.104 126.066C942.064 128.626 943.024 131.293 943.984 134.066C945.05 136.733 946.064 139.346 947.024 141.906C948.09 144.466 948.944 146.653 949.584 148.466H950.224C954.49 137.693 958.437 127.079 962.064 116.626C965.797 106.173 969.05 95.8794 971.824 85.746C973.21 84.8927 975.024 84.4661 977.264 84.4661Z" fill="#008080"/>
<path d="M1023.07 151.506C1027.55 151.506 1031.23 151.079 1034.11 150.226C1037.1 149.266 1039.23 148.359 1040.51 147.506V124.306L1020.67 126.386C1015.13 126.919 1011.02 128.199 1008.35 130.226C1005.69 132.146 1004.35 135.026 1004.35 138.866C1004.35 142.919 1005.9 146.066 1008.99 148.306C1012.09 150.439 1016.78 151.506 1023.07 151.506ZM1022.91 83.826C1032.19 83.826 1039.55 85.9061 1044.99 90.0661C1050.43 94.2261 1053.15 100.786 1053.15 109.746V147.666C1053.15 150.013 1052.67 151.826 1051.71 153.106C1050.86 154.279 1049.53 155.399 1047.71 156.466C1045.15 157.959 1041.74 159.239 1037.47 160.306C1033.31 161.479 1028.51 162.066 1023.07 162.066C1013.05 162.066 1005.26 160.093 999.712 156.146C994.272 152.199 991.552 146.493 991.552 139.026C991.552 131.986 993.846 126.706 998.432 123.186C1003.02 119.559 1009.47 117.319 1017.79 116.466L1040.51 114.226V109.746C1040.51 104.413 1038.91 100.519 1035.71 98.0661C1032.51 95.6127 1028.19 94.3861 1022.75 94.3861C1018.27 94.3861 1014.06 95.0261 1010.11 96.3061C1006.17 97.5861 1002.65 99.0261 999.552 100.626C998.699 99.8794 997.899 99.0261 997.152 98.0661C996.512 97.1061 996.192 96.0394 996.192 94.8661C996.192 93.3727 996.566 92.1461 997.312 91.1861C998.059 90.2261 999.232 89.3194 1000.83 88.4661C1003.71 86.9727 1007.02 85.8527 1010.75 85.1061C1014.49 84.2527 1018.54 83.826 1022.91 83.826Z" fill="#008080"/>
<path d="M1124.52 111.666C1124.52 105.693 1122.81 101.319 1119.4 98.5461C1116.09 95.7727 1111.61 94.3861 1105.96 94.3861C1101.69 94.3861 1097.9 94.9194 1094.6 95.986C1091.29 97.0527 1088.46 98.2794 1086.12 99.666V159.506C1085.58 159.719 1084.78 159.933 1083.72 160.146C1082.65 160.466 1081.48 160.626 1080.2 160.626C1075.61 160.626 1073.32 158.706 1073.32 154.866V100.306C1073.32 98.0661 1073.74 96.2527 1074.6 94.8661C1075.56 93.3727 1077.16 91.9327 1079.4 90.546C1082.17 88.8394 1085.85 87.2927 1090.44 85.9061C1095.02 84.5194 1100.2 83.826 1105.96 83.826C1115.66 83.826 1123.29 86.0127 1128.84 90.3861C1134.49 94.7594 1137.32 101.639 1137.32 111.026V159.506C1136.78 159.719 1135.93 159.933 1134.76 160.146C1133.69 160.466 1132.57 160.626 1131.4 160.626C1126.81 160.626 1124.52 158.706 1124.52 154.866V111.666Z" fill="#008080"/>
<path d="M1192.32 94.5461C1188.7 94.5461 1185.34 95.186 1182.24 96.466C1179.15 97.6394 1176.48 99.4527 1174.24 101.906C1172 104.253 1170.24 107.239 1168.96 110.866C1167.68 114.386 1167.04 118.439 1167.04 123.026C1167.04 132.199 1169.34 139.239 1173.92 144.146C1178.51 148.946 1184.64 151.346 1192.32 151.346C1196.8 151.346 1200.54 150.759 1203.52 149.586C1206.51 148.306 1209.18 146.866 1211.52 145.266C1212.7 145.906 1213.66 146.706 1214.4 147.666C1215.15 148.626 1215.52 149.799 1215.52 151.186C1215.52 152.679 1214.94 154.066 1213.76 155.346C1212.59 156.626 1210.94 157.746 1208.8 158.706C1206.78 159.666 1204.32 160.413 1201.44 160.946C1198.67 161.586 1195.63 161.906 1192.32 161.906C1186.78 161.906 1181.66 161.106 1176.96 159.506C1172.27 157.906 1168.22 155.506 1164.8 152.306C1161.39 149.106 1158.72 145.106 1156.8 140.306C1154.88 135.399 1153.92 129.639 1153.92 123.026C1153.92 116.519 1154.94 110.866 1156.96 106.066C1158.99 101.159 1161.71 97.0527 1165.12 93.7461C1168.54 90.4394 1172.54 87.986 1177.12 86.3861C1181.82 84.6794 1186.78 83.826 1192 83.826C1195.31 83.826 1198.35 84.1461 1201.12 84.7861C1204 85.3194 1206.46 86.1194 1208.48 87.186C1210.51 88.2527 1212.06 89.4794 1213.12 90.8661C1214.3 92.1461 1214.88 93.4794 1214.88 94.8661C1214.88 96.1461 1214.51 97.2661 1213.76 98.2261C1213.02 99.1861 1212.06 99.9327 1210.88 100.466C1208.54 98.8661 1205.98 97.4794 1203.2 96.3061C1200.43 95.1327 1196.8 94.5461 1192.32 94.5461Z" fill="#008080"/>
<path d="M1298.06 122.866C1298.06 128.839 1297.2 134.226 1295.5 139.026C1293.79 143.826 1291.34 147.933 1288.14 151.346C1285.04 154.759 1281.26 157.373 1276.78 159.186C1272.3 160.999 1267.28 161.906 1261.74 161.906C1256.19 161.906 1251.18 160.999 1246.7 159.186C1242.22 157.373 1238.38 154.759 1235.18 151.346C1231.98 147.933 1229.52 143.826 1227.82 139.026C1226.11 134.226 1225.26 128.839 1225.26 122.866C1225.26 116.893 1226.11 111.506 1227.82 106.706C1229.63 101.906 1232.14 97.7994 1235.34 94.3861C1238.54 90.9727 1242.38 88.3594 1246.86 86.546C1251.34 84.7327 1256.3 83.826 1261.74 83.826C1267.18 83.826 1272.14 84.7327 1276.62 86.546C1281.1 88.3594 1284.88 90.9727 1287.98 94.3861C1291.18 97.7994 1293.63 101.906 1295.34 106.706C1297.15 111.506 1298.06 116.893 1298.06 122.866ZM1261.74 94.3861C1254.48 94.3861 1248.78 96.8927 1244.62 101.906C1240.46 106.919 1238.38 113.906 1238.38 122.866C1238.38 131.933 1240.4 138.973 1244.46 143.986C1248.62 148.893 1254.38 151.346 1261.74 151.346C1269.1 151.346 1274.8 148.839 1278.86 143.826C1282.91 138.813 1284.94 131.826 1284.94 122.866C1284.94 113.906 1282.86 106.919 1278.7 101.906C1274.64 96.8927 1268.99 94.3861 1261.74 94.3861Z" fill="#008080"/>
<path d="M1314.65 86.2261C1315.19 86.0127 1315.99 85.7994 1317.05 85.5861C1318.23 85.2661 1319.45 85.1061 1320.73 85.1061C1325.21 85.1061 1327.45 87.0794 1327.45 91.0261V132.146C1327.45 139.079 1329.27 144.039 1332.89 147.026C1336.52 149.906 1341.53 151.346 1347.93 151.346C1352.2 151.346 1355.83 150.919 1358.81 150.066C1361.8 149.106 1364.15 148.146 1365.85 147.186V86.2261C1366.39 86.0127 1367.19 85.7994 1368.25 85.5861C1369.43 85.2661 1370.6 85.1061 1371.77 85.1061C1376.36 85.1061 1378.65 87.0794 1378.65 91.0261V146.706C1378.65 148.946 1378.33 150.759 1377.69 152.146C1377.16 153.426 1375.77 154.706 1373.53 155.986C1371.08 157.373 1367.67 158.706 1363.29 159.986C1359.03 161.266 1353.85 161.906 1347.77 161.906C1337.11 161.906 1328.89 159.559 1323.13 154.866C1317.48 150.173 1314.65 142.813 1314.65 132.786V86.2261Z" fill="#008080"/>
<path d="M1454.78 84.4661C1456.6 84.4661 1458.04 84.9461 1459.1 85.9061C1460.28 86.8661 1460.86 88.2527 1460.86 90.0661C1460.86 91.2394 1460.44 93.3194 1459.58 96.3061C1458.73 99.1861 1457.61 102.653 1456.22 106.706C1454.84 110.653 1453.24 115.026 1451.42 119.826C1449.72 124.626 1447.85 129.426 1445.82 134.226C1443.9 138.919 1441.93 143.453 1439.9 147.826C1437.98 152.199 1436.17 155.986 1434.46 159.186C1433.93 159.613 1432.97 159.986 1431.58 160.306C1430.3 160.626 1428.92 160.786 1427.42 160.786C1423.48 160.786 1420.92 159.666 1419.74 157.426C1418.78 155.613 1417.56 153.106 1416.06 149.906C1414.57 146.706 1412.97 143.079 1411.26 139.026C1409.56 134.973 1407.8 130.653 1405.98 126.066C1404.17 121.479 1402.41 116.946 1400.7 112.466C1399 107.879 1397.4 103.506 1395.9 99.3461C1394.41 95.0794 1393.18 91.2927 1392.22 87.986C1392.97 86.9194 1393.98 86.066 1395.26 85.426C1396.54 84.7861 1397.82 84.4661 1399.1 84.4661C1401.02 84.4661 1402.46 84.9461 1403.42 85.9061C1404.49 86.8661 1405.45 88.4661 1406.3 90.7061L1416.22 119.346C1416.86 121.159 1417.66 123.399 1418.62 126.066C1419.58 128.626 1420.54 131.293 1421.5 134.066C1422.57 136.733 1423.58 139.346 1424.54 141.906C1425.61 144.466 1426.46 146.653 1427.1 148.466H1427.74C1432.01 137.693 1435.96 127.079 1439.58 116.626C1443.32 106.173 1446.57 95.8794 1449.34 85.746C1450.73 84.8927 1452.54 84.4661 1454.78 84.4661Z" fill="#008080"/>
<path d="M1483.31 130.386C1486.19 144.359 1495.36 151.346 1510.83 151.346C1515.31 151.346 1519.36 150.599 1522.99 149.106C1526.62 147.613 1529.5 146.013 1531.63 144.306C1534.19 145.799 1535.47 147.826 1535.47 150.386C1535.47 151.879 1534.78 153.319 1533.39 154.706C1532.11 156.093 1530.3 157.319 1527.95 158.386C1525.71 159.453 1523.04 160.306 1519.95 160.946C1516.96 161.586 1513.71 161.906 1510.19 161.906C1497.82 161.906 1488 158.546 1480.75 151.826C1473.6 145.106 1470.03 135.293 1470.03 122.386C1470.03 116.306 1470.88 110.919 1472.59 106.226C1474.4 101.426 1476.86 97.3727 1479.95 94.0661C1483.15 90.7594 1486.94 88.2527 1491.31 86.546C1495.68 84.7327 1500.43 83.826 1505.55 83.826C1510.35 83.826 1514.78 84.6261 1518.83 86.2261C1522.88 87.8261 1526.35 90.1194 1529.23 93.106C1532.22 95.986 1534.51 99.4527 1536.11 103.506C1537.82 107.453 1538.67 111.826 1538.67 116.626C1538.67 118.973 1538.14 120.679 1537.07 121.746C1536 122.706 1534.51 123.293 1532.59 123.506L1483.31 130.386ZM1505.39 94.226C1498.88 94.226 1493.5 96.5194 1489.23 101.106C1484.96 105.586 1482.72 112.039 1482.51 120.466L1526.51 114.386C1525.98 108.519 1523.9 103.719 1520.27 99.9861C1516.75 96.1461 1511.79 94.226 1505.39 94.226Z" fill="#008080"/>
<path d="M1566.76 159.506C1566.23 159.719 1565.43 159.933 1564.36 160.146C1563.29 160.466 1562.12 160.626 1560.84 160.626C1556.25 160.626 1553.96 158.706 1553.96 154.866V100.626C1553.96 98.1727 1554.39 96.2527 1555.24 94.8661C1556.2 93.3727 1557.75 91.9327 1559.88 90.546C1562.65 88.7327 1566.39 87.1861 1571.08 85.9061C1575.88 84.5194 1581.27 83.826 1587.24 83.826C1595.77 83.826 1600.04 85.9594 1600.04 90.226C1600.04 91.2927 1599.88 92.3061 1599.56 93.2661C1599.24 94.1194 1598.81 94.8661 1598.28 95.5061C1597.21 95.2927 1595.83 95.0794 1594.12 94.8661C1592.41 94.6527 1590.71 94.5461 1589 94.5461C1584.09 94.5461 1579.77 95.0794 1576.04 96.146C1572.31 97.106 1569.21 98.2794 1566.76 99.666V159.506Z" fill="#008080"/>
<path d="M63.3549 25.58C55.7064 28.2627 48.5154 31.94 41.903 36.4414V82.4267C41.903 86.4267 41.5902 89.3067 41.5902 89.3067H41.903C41.903 89.3067 48.9402 77.948 65.8284 77.948C87.4106 77.948 101.171 95.3867 101.171 120.667C101.171 146.584 85.6891 163.384 64.5786 163.384C48.0019 163.384 40.8096 151.864 40.8096 151.864H40.4955C40.4955 151.864 40.8096 154.104 40.8096 157.304V161.463H22.0436V54.5721C8.29224 71.2667 0 92.8267 0 116.367C0 169.359 41.989 212.315 93.7845 212.315C145.576 212.315 187.563 169.359 187.563 116.367V97.1454H183.533C181.345 97.1454 179.938 97.9467 179.154 100.025L156.324 161.463H132.711L109.88 100.025C109.097 97.9467 107.69 97.1454 105.5 97.1454H103.781V79.8667H115.196C121.764 79.8667 124.892 81.948 126.925 87.5467L141.936 130.424C143.658 135.225 144.908 142.104 144.908 142.104H145.22C145.22 142.104 146.473 135.225 148.035 130.424L163.048 87.5467C165.081 81.948 168.364 79.8667 174.777 79.8667H187.563V2.01738C187.563 2.01738 100.217 12.6534 63.3549 25.58Z" fill="url(#paint0_linear)"/>
<path d="M41.2788 121.145C41.2788 133.785 47.8469 146.265 61.1382 146.265C71.9274 146.265 81.1553 137.145 81.1553 120.987C81.1553 105.467 73.0221 95.3867 61.2946 95.3867C50.9733 95.3867 41.2788 103.067 41.2788 121.145" fill="url(#paint1_linear)"/>
</g>
<defs>
<linearGradient id="paint0_linear" x1="93.7812" y1="212.315" x2="93.7812" y2="2.01811" gradientUnits="userSpaceOnUse">
<stop stop-color="#008080"/>
<stop offset="1" stop-color="#39B54A"/>
</linearGradient>
<linearGradient id="paint1_linear" x1="61.2166" y1="212.315" x2="61.2166" y2="2.01826" gradientUnits="userSpaceOnUse">
<stop stop-color="#008080"/>
<stop offset="1" stop-color="#39B54A"/>
</linearGradient>
<clipPath id="clip0">
<rect width="1600" height="232" fill="white"/>
</clipPath>
</defs>
</svg>
