<svg width="184" height="201" viewBox="0 0 184 201" fill="none" xmlns="http://www.w3.org/2000/svg">
<path d="M40.9895 113.484C40.9895 125.505 47.3805 137.374 60.3133 137.374C70.8114 137.374 79.7904 128.701 79.7904 113.333C79.7904 98.5733 71.8766 88.9869 60.4654 88.9869C50.4225 88.9869 40.9895 96.2909 40.9895 113.484" fill="url(#paint0_linear)"/>
<path d="M62.4702 22.5984C55.028 25.1497 48.0309 28.6469 41.5968 32.9279V76.6615C41.5968 80.4657 41.2925 83.2046 41.2925 83.2046H41.5968C41.5968 83.2046 48.4443 72.4021 64.8769 72.4021C85.877 72.4021 99.2663 88.9869 99.2663 113.029C99.2663 137.677 84.2019 153.655 63.6608 153.655C47.5313 153.655 40.533 142.699 40.533 142.699H40.2274C40.2274 142.699 40.533 144.829 40.533 147.872V151.827H22.2731V50.1708C8.89267 66.048 0.824097 86.5523 0.824097 108.94C0.824097 159.337 41.6805 200.189 92.079 200.189C142.474 200.189 183.328 159.337 183.328 108.94V90.6595H179.407C177.278 90.6595 175.908 91.4215 175.146 93.3984L152.931 151.827H129.956L107.741 93.3984C106.979 91.4215 105.609 90.6595 103.479 90.6595H101.806V74.2269H112.913C119.304 74.2269 122.347 76.2062 124.325 81.5308L138.932 122.309C140.607 126.875 141.823 133.417 141.823 133.417H142.128C142.128 133.417 143.346 126.875 144.866 122.309L159.474 81.5308C161.453 76.2062 164.647 74.2269 170.887 74.2269H183.328V0.189452C183.328 0.189452 98.3381 10.3047 62.4702 22.5984Z" fill="url(#paint1_linear)"/>
<defs>
<linearGradient id="paint0_linear" x1="60.3895" y1="200.19" x2="60.3895" y2="0.190279" gradientUnits="userSpaceOnUse">
<stop stop-color="#008080"/>
<stop offset="1" stop-color="#39B54A"/>
</linearGradient>
<linearGradient id="paint1_linear" x1="92.0758" y1="200.19" x2="92.0758" y2="0.190149" gradientUnits="userSpaceOnUse">
<stop stop-color="#008080"/>
<stop offset="1" stop-color="#39B54A"/>
</linearGradient>
</defs>
</svg>
